<svg width="32" height="32" viewBox="0 0 32 32" fill="none" xmlns="http://www.w3.org/2000/svg">
<g clip-path="url(#clip0_54_1905)">
<circle cx="16" cy="16" r="16" fill="white"/>
<g clip-path="url(#clip1_54_1905)">
<path d="M16 11.248C17.857 11.248 19.526 11.889 20.65 13.042C21.5745 13.1634 22.4467 13.541 23.168 14.132C21.907 11.482 19.295 10 16 10C12.75 10 10.12 11.48 8.84399 14.122C9.50523 13.5835 10.2932 13.2231 11.133 13.075C12.236 11.872 13.974 11.248 16 11.248Z" fill="url(#paint0_linear_54_1905)"/>
<path d="M20 22C18.9597 21.9999 17.9604 21.5946 17.214 20.87L17.212 20.868C17.1259 20.8032 17.0334 20.7472 16.936 20.701C16.6425 20.5661 16.323 20.4975 16 20.5C15.586 20.5 15.271 20.603 15.065 20.701C14.9673 20.7472 14.8744 20.8031 14.788 20.868L14.786 20.87C14.3158 21.3265 13.7407 21.6604 13.1112 21.8425C12.4817 22.0246 11.8171 22.0492 11.1758 21.9142C10.5346 21.7792 9.93629 21.4888 9.43361 21.0684C8.93093 20.648 8.53923 20.1105 8.29296 19.5032C8.04669 18.8959 7.9534 18.2375 8.02127 17.5857C8.08915 16.9339 8.31612 16.3088 8.68223 15.7653C9.04833 15.2218 9.54237 14.7765 10.1209 14.4687C10.6994 14.1609 11.3447 14 12 14H20C21.0609 14 22.0783 14.4214 22.8284 15.1716C23.5786 15.9217 24 16.9391 24 18C24 19.0609 23.5786 20.0783 22.8284 20.8284C22.0783 21.5786 21.0609 22 20 22Z" fill="url(#paint1_linear_54_1905)"/>
</g>
</g>
<defs>
<linearGradient id="paint0_linear_54_1905" x1="16.006" y1="10" x2="16.006" y2="14.132" gradientUnits="userSpaceOnUse">
<stop offset="0.54" stop-color="#3806CC"/>
<stop offset="1" stop-color="#1C0366"/>
</linearGradient>
<linearGradient id="paint1_linear_54_1905" x1="15.9999" y1="14" x2="15.9999" y2="22" gradientUnits="userSpaceOnUse">
<stop offset="0.54" stop-color="#3806CC"/>
<stop offset="1" stop-color="#1C0366"/>
</linearGradient>
<clipPath id="clip0_54_1905">
<rect width="32" height="32" fill="white"/>
</clipPath>
<clipPath id="clip1_54_1905">
<rect width="16" height="16" fill="white" transform="translate(8 10)"/>
</clipPath>
</defs>
</svg>
