<svg width="27" height="27" fill="none" xmlns="http://www.w3.org/2000/svg"><path d="M13.333 14.807c.378 0 .695-.128.95-.384a1.29 1.29 0 0 0 .384-.95 1.29 1.29 0 0 0-.384-.95 1.29 1.29 0 0 0-.95-.383 1.29 1.29 0 0 0-.95.383 1.29 1.29 0 0 0-.383.95c0 .378.128.695.383.95.256.256.573.384.95.384Zm4 0c.378 0 .695-.128.95-.384a1.29 1.29 0 0 0 .384-.95 1.29 1.29 0 0 0-.384-.95 1.29 1.29 0 0 0-.95-.383 1.29 1.29 0 0 0-.95.383 1.29 1.29 0 0 0-.383.95c0 .378.128.695.383.95.256.256.573.384.95.384Zm-8 0c.378 0 .695-.128.95-.384a1.29 1.29 0 0 0 .384-.95 1.29 1.29 0 0 0-.384-.95 1.29 1.29 0 0 0-.95-.383 1.29 1.29 0 0 0-.95.383 1.29 1.29 0 0 0-.383.95c0 .378.128.695.383.95.256.256.573.384.95.384Zm4 4c.378 0 .695-.128.95-.384a1.29 1.29 0 0 0 .384-.95 1.29 1.29 0 0 0-.384-.95 1.29 1.29 0 0 0-.95-.383 1.29 1.29 0 0 0-.95.383 1.29 1.29 0 0 0-.383.95c0 .378.128.695.383.95.256.256.573.384.95.384Zm4 0c.378 0 .695-.128.95-.384a1.29 1.29 0 0 0 .384-.95 1.29 1.29 0 0 0-.384-.95 1.29 1.29 0 0 0-.95-.383 1.29 1.29 0 0 0-.95.383 1.29 1.29 0 0 0-.383.95c0 .378.128.695.383.95.256.256.573.384.95.384Zm-8 0c.378 0 .695-.128.95-.384a1.29 1.29 0 0 0 .384-.95 1.29 1.29 0 0 0-.384-.95 1.29 1.29 0 0 0-.95-.383 1.29 1.29 0 0 0-.95.383 1.29 1.29 0 0 0-.383.95c0 .378.128.695.383.95.256.256.573.384.95.384Zm4-8c.378 0 .695-.128.95-.384a1.29 1.29 0 0 0 .384-.95 1.29 1.29 0 0 0-.384-.95 1.29 1.29 0 0 0-.95-.383 1.29 1.29 0 0 0-.95.383 1.29 1.29 0 0 0-.383.95c0 .378.128.695.383.95.256.256.573.384.95.384Zm4 0c.378 0 .695-.128.95-.384a1.29 1.29 0 0 0 .384-.95 1.29 1.29 0 0 0-.384-.95 1.29 1.29 0 0 0-.95-.383 1.29 1.29 0 0 0-.95.383 1.29 1.29 0 0 0-.383.95c0 .378.128.695.383.95.256.256.573.384.95.384Zm-8 0c.378 0 .695-.128.95-.384a1.29 1.29 0 0 0 .384-.95 1.29 1.29 0 0 0-.384-.95 1.29 1.29 0 0 0-.95-.383 1.29 1.29 0 0 0-.95.383 1.29 1.29 0 0 0-.383.95c0 .378.128.695.383.95.256.256.573.384.95.384Zm4 16c-1.844 0-3.577-.35-5.2-1.05a13.465 13.465 0 0 1-4.233-2.85c-1.2-1.2-2.15-2.611-2.85-4.234-.7-1.622-1.05-3.355-1.05-5.2 0-1.844.35-3.577 1.05-5.2C1.75 6.651 2.7 5.24 3.9 4.04c1.2-1.2 2.611-2.15 4.233-2.85C9.756.49 11.49.14 13.333.14c1.845 0 3.578.35 5.2 1.05 1.623.7 3.034 1.65 4.234 2.85 1.2 1.2 2.15 2.611 2.85 4.233.7 1.623 1.05 3.356 1.05 5.2 0 1.845-.35 3.578-1.05 5.2a13.464 13.464 0 0 1-2.85 4.234c-1.2 1.2-2.611 2.15-4.234 2.85-1.622.7-3.355 1.05-5.2 1.05Zm0-2.667c2.956 0 5.473-1.039 7.55-3.117C22.961 18.946 24 16.43 24 13.473c0-2.955-1.039-5.472-3.117-7.55-2.077-2.077-4.594-3.116-7.55-3.116-2.955 0-5.472 1.039-7.55 3.116-2.077 2.078-3.116 4.595-3.116 7.55 0 2.956 1.039 5.473 3.116 7.55 2.078 2.078 4.595 3.117 7.55 3.117Z" fill="url(#a)"/><defs><linearGradient id="a" x1="13.333" y1=".14" x2="13.333" y2="26.807" gradientUnits="userSpaceOnUse"><stop offset=".54" stop-color="#3806CC"/><stop offset="1" stop-color="#1C0366"/></linearGradient></defs></svg>