<svg width="26" height="29" fill="none" xmlns="http://www.w3.org/2000/svg"><path d="M4.667 28.14a2.568 2.568 0 0 1-1.884-.783A2.568 2.568 0 0 1 2 25.473V20.14c0-.733.261-1.361.783-1.883a2.568 2.568 0 0 1 1.884-.784h18.666c.734 0 1.361.262 1.884.784.522.522.783 1.15.783 1.883v5.333c0 .734-.261 1.361-.783 1.884a2.568 2.568 0 0 1-1.884.783H4.667Zm0-2.667h18.666V20.14H4.667v5.333Zm2.033-10-6.7-3.8 8-1.333-2.167-7.833 6.634 4.7 4-7.067 1.333 8 7.833-2.167-4.7 6.634L26 15.473h-5.4l-3.533-2 2.066-2.933-3.466.967-.6-3.534-1.734 3.1L10.4 9.007l.967 3.466-3.534.6 4 2.4H6.7Z" fill="url(#a)"/><defs><linearGradient id="a" x1="13" y1=".14" x2="13" y2="28.14" gradientUnits="userSpaceOnUse"><stop offset=".54" stop-color="#3806CC"/><stop offset="1" stop-color="#1C0366"/></linearGradient></defs></svg>