<svg width="14" height="10" fill="none" xmlns="http://www.w3.org/2000/svg"><path d="M11.334 1.333C11.334.6 10.734 0 10.001 0H8.668c-.367 0-.667.3-.667.666 0 .367.3.667.667.667h1.333V3.1L7.681 6H5.334V3.333c0-.367-.3-.667-.666-.667H2.667A2.666 2.666 0 0 0 0 5.333v1.333c0 .367.3.667.667.667h.666c0 1.107.894 2 2 2 1.107 0 2-.893 2-2H7.68c.407 0 .787-.187 1.04-.5l2.32-2.9c.193-.24.293-.534.293-.833l.001-1.767ZM3.334 8a.669.669 0 0 1-.666-.667h1.333c0 .367-.3.667-.667.667Z" fill="#9C9C9C"/><path d="M2.667.666h2c.367 0 .667.3.667.667 0 .366-.3.666-.666.666H2.667A.67.67 0 0 1 2 1.333c0-.367.3-.667.667-.667Zm8.668 4.666c-1.107 0-2 .894-2 2 0 1.107.893 2 2 2s2-.893 2-2c0-1.106-.893-2-2-2Zm0 2.667a.67.67 0 0 1-.667-.667c0-.366.3-.666.667-.666.367 0 .667.3.667.666 0 .367-.3.667-.667.667Z" fill="#9C9C9C"/></svg>