<svg width="22" height="27" fill="none" xmlns="http://www.w3.org/2000/svg"><path d="m9.267 18.207 7.533-7.534-1.9-1.9-5.633 5.634-2.8-2.8-1.9 1.9 4.7 4.7Zm1.4 8.6c-3.09-.778-5.64-2.55-7.65-5.317C1.006 18.723 0 15.651 0 12.273V4.14l10.667-4 10.666 4v8.133c0 3.378-1.005 6.45-3.016 9.217-2.011 2.767-4.561 4.539-7.65 5.317Zm0-2.8c2.31-.734 4.222-2.2 5.733-4.4 1.511-2.2 2.267-4.645 2.267-7.334v-6.3l-8-3-8 3v6.3c0 2.69.755 5.134 2.266 7.334 1.511 2.2 3.423 3.666 5.734 4.4Z" fill="url(#a)"/><defs><linearGradient id="a" x1="10.667" y1=".14" x2="10.667" y2="26.807" gradientUnits="userSpaceOnUse"><stop offset=".54" stop-color="#3806CC"/><stop offset="1" stop-color="#1C0366"/></linearGradient></defs></svg>