<svg width="22" height="27" fill="none" xmlns="http://www.w3.org/2000/svg"><path d="M10.667 26.807c-3.09-.778-5.64-2.55-7.65-5.317C1.006 18.723 0 15.651 0 12.273V4.14l10.667-4 10.666 4v8.133c0 3.378-1.005 6.45-3.016 9.217-2.011 2.767-4.561 4.539-7.65 5.317Zm0-2.8c2.155-.667 3.955-1.984 5.4-3.95a13.163 13.163 0 0 0 2.533-6.584h-7.933v-10.5l-8 3v6.9c0 .156.022.356.066.6h7.934v10.534Z" fill="url(#a)"/><defs><linearGradient id="a" x1="10.667" y1=".14" x2="10.667" y2="26.807" gradientUnits="userSpaceOnUse"><stop offset=".54" stop-color="#3806CC"/><stop offset="1" stop-color="#1C0366"/></linearGradient></defs></svg>