<svg width="27" height="27" fill="none" xmlns="http://www.w3.org/2000/svg"><path d="M13.333 17.473c.378 0 .695-.127.95-.383a1.29 1.29 0 0 0 .384-.95 1.29 1.29 0 0 0-.384-.95 1.29 1.29 0 0 0-.95-.383 1.29 1.29 0 0 0-.95.383 1.29 1.29 0 0 0-.383.95c0 .378.128.694.383.95.256.256.573.383.95.383ZM12 12.14h2.667v-8H12v8ZM0 26.807v-24C0 2.073.261 1.446.783.923A2.568 2.568 0 0 1 2.667.14H24c.733 0 1.361.261 1.883.783.523.523.784 1.15.784 1.884v16c0 .733-.261 1.36-.784 1.883a2.568 2.568 0 0 1-1.883.783H5.333L0 26.807Zm4.2-8H24v-16H2.667v17.5l1.533-1.5Z" fill="url(#a)"/><defs><linearGradient id="a" x1="13.333" y1=".14" x2="13.333" y2="26.807" gradientUnits="userSpaceOnUse"><stop offset=".54" stop-color="#3806CC"/><stop offset="1" stop-color="#1C0366"/></linearGradient></defs></svg>