<svg width="22" height="27" fill="none" xmlns="http://www.w3.org/2000/svg"><path d="M5.333 21.473H16v-2.666H5.333v2.666Zm0-5.333H16v-2.667H5.333v2.667ZM2.667 26.807a2.568 2.568 0 0 1-1.884-.784A2.568 2.568 0 0 1 0 24.14V2.807C0 2.073.261 1.446.783.923A2.568 2.568 0 0 1 2.667.14h10.666l8 8v16c0 .733-.26 1.361-.783 1.883a2.568 2.568 0 0 1-1.883.784h-16ZM12 9.473V2.807H2.667V24.14h16V9.473H12Z" fill="url(#a)"/><defs><linearGradient id="a" x1="10.667" y1=".14" x2="10.667" y2="26.807" gradientUnits="userSpaceOnUse"><stop offset=".54" stop-color="#3806CC"/><stop offset="1" stop-color="#1C0366"/></linearGradient></defs></svg>