<svg width="136" height="36" viewBox="0 0 136 36" fill="none" xmlns="http://www.w3.org/2000/svg">
<path d="M40.4035 1.23121C37.722 1.65864 33.8085 2.22855 31.743 2.48501C29.6775 2.74147 27.8295 2.99793 27.6483 3.08342C27.1772 3.33988 28.4455 4.33722 29.2065 4.33722C30.4023 4.33722 30.9096 5.53403 31.6706 10.0078C32.6489 15.6214 32.6489 16.4193 31.6706 17.1317C30.9096 17.7016 30.9821 18.3 31.8517 18.3C32.7939 18.3 33.12 19.0694 33.8447 23.2297C34.7507 28.1879 34.7869 28.8433 34.0984 28.8433C33.6636 28.8433 33.1562 29.4132 33.1562 29.8691C33.1562 30.2111 44.1721 29.0998 44.6432 28.7293C45.0418 28.4159 44.3533 27.7035 43.7011 27.7035C43.23 27.7035 42.9039 27.4755 42.7589 27.0481C42.614 26.5067 40.9471 18.8414 40.6572 17.3026C40.5485 16.7612 40.6572 16.7327 42.7589 16.9037C46.6362 17.2172 47.3972 17.8441 49.4989 22.7738C51.8905 28.4159 53.5936 29.7267 58.6305 29.9261C60.2611 29.9831 62.2541 29.9261 63.0151 29.7837C64.8632 29.4702 65.1893 28.8433 63.5224 28.8433C61.0946 28.8433 60.0799 27.732 58.1957 23.0017C56.0215 17.5591 53.9197 15.7069 49.6438 15.5074L47.3609 15.3934L49.5714 14.1966C54.717 11.4896 56.4201 7.47172 54.1009 3.53934C52.8689 1.51617 50.2236 0.319359 46.9623 0.37635C46.0564 0.404846 43.085 0.775286 40.4035 1.23121ZM46.0927 2.48501C47.216 3.11191 47.7958 4.73615 47.7595 7.32924C47.7595 10.1218 46.7812 12.2874 44.8969 13.7977C43.6286 14.8235 40.4035 16.4478 40.4035 16.0773C40.4035 15.9634 40.1499 14.5956 39.86 13.0283C39.0628 8.61153 38.8091 4.59368 39.2802 3.68182C39.4976 3.22589 40.1861 2.71298 40.8384 2.48501C42.4328 1.9436 45.1143 1.9436 46.0927 2.48501Z" fill="#F7F7F7"/>
<path d="M88.7795 1.17421C83.5977 2.22854 79.0319 6.67383 77.6912 11.917C77.2563 13.5982 77.0751 13.8832 76.2055 14.1396C75.0459 14.4816 74.901 14.8805 75.8793 15.3649C76.4229 15.6214 76.5678 16.1913 76.749 18.6419C76.9664 22.2323 77.9448 24.4265 80.0103 26.2217C81.7496 27.675 83.3078 28.3589 85.9893 28.8148C88.4534 29.2137 89.9029 29.1852 91.606 28.7293C95.2659 27.675 97.8749 25.2244 99.8679 20.8646C100.919 18.5279 101.136 18.243 102.078 18.1005C103.274 17.9295 103.347 17.7016 102.404 17.0462C101.788 16.6187 101.716 16.1343 101.716 12.6579C101.752 9.43789 101.607 8.41205 100.955 6.8448C100.013 4.56517 97.6575 2.34252 95.447 1.65863C93.7077 1.08872 90.3015 0.86076 88.7795 1.17421ZM93.1279 2.22854C94.7948 2.74146 95.3746 5.64799 94.7948 10.6347C93.599 20.5226 91.4973 26.5637 88.8882 27.7035C87.9823 28.0739 87.7649 28.0739 86.8952 27.7035C84.8297 26.7916 84.0688 24.0276 84.3949 18.8699C84.9022 10.7202 87.62 3.7673 90.845 2.54199C92.222 2.00058 92.2945 2.00058 93.1279 2.22854Z" fill="#F7F7F7"/>
<path d="M110.594 3.96676C110.05 4.39419 110.412 4.9641 111.427 5.22056C112.949 5.64799 112.877 6.13241 110.521 12.031C108.564 16.9322 108.021 17.7301 106.644 17.7301C105.847 17.7301 105.847 17.958 106.535 18.6989C107.369 19.5538 107.187 20.4086 105.339 24.7114C103.527 28.9858 103.781 28.7008 100.955 29.3277C100.085 29.4987 100.955 29.9261 103.926 30.667C106.281 31.2369 106.789 31.2939 106.97 30.9519C107.079 30.724 106.825 30.325 106.39 30.0401L105.593 29.5557L109.035 21.6054C110.92 17.2171 112.55 13.8262 112.659 14.0541C112.768 14.2821 113.348 16.7612 113.964 19.5823C115.268 25.4523 117.08 32.5192 117.551 33.488C117.768 33.944 118.457 34.2859 119.834 34.6279C123.276 35.4827 122.95 35.7107 125.306 30.1256C126.465 27.39 127.661 24.9394 127.951 24.7114C128.277 24.4835 128.893 24.284 129.4 24.284C130.451 24.284 130.524 23.9706 129.545 23.2867C129.147 23.0017 128.821 22.5743 128.821 22.3178C128.821 21.6339 133.06 11.7745 133.531 11.3186C133.749 11.0906 134.365 10.8912 134.908 10.8342C135.452 10.7772 135.923 10.5492 135.995 10.3212C136.068 10.0078 135.271 9.66585 133.278 9.12444C131.719 8.7255 130.342 8.44054 130.198 8.49754C129.618 8.78249 129.944 9.72284 130.632 9.89381C131.067 10.0078 131.357 10.3212 131.357 10.6917C131.357 11.0336 129.69 15.137 127.661 19.7817C124.907 26.0507 123.856 28.1024 123.675 27.618C123.53 27.276 122.407 22.1469 121.175 16.2198C119.906 10.2358 118.747 5.39153 118.529 5.33454C118.312 5.30605 116.645 4.9356 114.797 4.50817C111.173 3.7103 110.956 3.6818 110.594 3.96676Z" fill="#F7F7F7"/>
<path d="M18.9154 5.13507C17.1761 5.67649 15.7991 6.27489 15.8716 6.44587C15.944 6.61684 16.5963 6.78781 17.321 6.8448C18.4444 6.93029 18.698 7.10126 19.3503 8.1271C20.1837 9.52337 21.0896 12.9998 22.829 21.577C23.5175 25.0249 24.1697 28.2164 24.2784 28.7008C24.4596 29.4417 24.4234 29.4987 23.9523 29.1282C23.3001 28.6153 18.7343 22.0614 14.5308 15.5929C10.9797 10.1788 10.4723 8.78249 11.7769 7.75666C12.2117 7.41471 12.5016 7.07277 12.3929 7.01578C12.2842 6.93029 10.6898 7.24374 8.8417 7.72816C6.9574 8.18409 4.20343 8.86798 2.71774 9.23842C0.507311 9.75134 0 10.0078 0 10.4637C0 10.8912 0.253655 11.0336 1.05086 11.0336C2.31913 11.0621 2.2829 11.0621 6.34138 16.7327C9.38525 21.064 10.11 22.5743 9.2403 23.0017C8.58805 23.3152 8.87794 23.7141 9.78385 23.7141C11.1246 23.7141 11.7769 24.398 14.4584 28.3874C15.7991 30.3535 17.2848 32.2058 17.7921 32.5192C19.8214 33.773 24.2422 33.488 26.0903 31.9778L27.1049 31.1514L25.9091 26.3927C24.4959 20.6651 24.4959 20.3516 25.583 19.6678C26.199 19.2688 26.3077 19.0694 25.9816 18.9554C25.7279 18.8699 25.1119 18.5279 24.677 18.186C23.9523 17.6731 23.6262 16.7042 22.4666 11.8315L21.1259 6.04693L21.8868 5.30605C22.6478 4.53667 22.8652 4.02375 22.3941 4.08075C22.213 4.10924 20.691 4.56517 18.9154 5.13507Z" fill="#F7F7F7"/>
</svg>
