<svg width="32" height="22" fill="none" xmlns="http://www.w3.org/2000/svg"><path d="M28.801 0H3.2C1.44 0 .015 1.237.015 2.75L0 19.25C0 20.763 1.44 22 3.199 22H28.8C30.56 22 32 20.763 32 19.25V2.75C32 1.237 30.56 0 28.801 0Zm-.641 5.844-11.311 6.078a1.821 1.821 0 0 1-.849.207c-.3 0-.594-.072-.849-.207L3.841 5.844a1.317 1.317 0 0 1-.407-.309 1.106 1.106 0 0 1-.234-.42 1.008 1.008 0 0 1-.024-.466c.029-.155.093-.303.19-.436s.224-.248.374-.338c.15-.09.318-.153.497-.186.179-.032.363-.034.542-.004.18.03.35.091.501.18L16 9.624l10.72-5.76c.151-.089.321-.15.5-.18.18-.03.364-.028.543.004.179.033.348.096.497.186.15.09.277.205.374.338.096.133.161.281.19.436.028.155.02.314-.024.466a1.106 1.106 0 0 1-.234.42c-.11.126-.248.23-.406.309Z" fill="#fff"/></svg>