<svg width="36" height="23" fill="none" xmlns="http://www.w3.org/2000/svg"><path d="M35.247 3.581a3.835 3.835 0 0 0-1.163-1.758 4.72 4.72 0 0 0-2.02-1.02C29.258.146 18 .146 18 .146S6.742.146 3.934.803a4.721 4.721 0 0 0-2.018 1.02A3.837 3.837 0 0 0 .753 3.581C0 6.033 0 11.146 0 11.146s0 5.113.753 7.564c.203.664.604 1.27 1.163 1.758a4.72 4.72 0 0 0 2.02 1.02c2.806.657 14.064.657 14.064.657s11.258 0 14.066-.657a4.719 4.719 0 0 0 2.02-1.02 3.835 3.835 0 0 0 1.163-1.758C36 16.259 36 11.145 36 11.145s0-5.112-.753-7.564Zm-20.93 12.207V6.503l9.41 4.642-9.41 4.641Z" fill="url(#a)"/><defs><linearGradient id="a" x1="18" y1=".146" x2="18" y2="22.145" gradientUnits="userSpaceOnUse"><stop offset=".54" stop-color="#3806CC"/><stop offset="1" stop-color="#1C0366"/></linearGradient></defs></svg>