<svg width="43" height="60" fill="none" xmlns="http://www.w3.org/2000/svg"><path d="M38.305 14.55a2 2 0 1 1 3.883-.957 2 2 0 0 1-3.883.957ZM35.432 2.9a2 2 0 1 1 3.884-.958 2 2 0 0 1-3.884.957ZM29.526 29.074a2 2 0 1 1 3.884-.958 2 2 0 0 1-3.884.958ZM32.399 40.725a2 2 0 1 1 3.884-.957 2 2 0 0 1-3.884.957ZM26.654 17.423a2 2 0 1 1 3.883-.957 2 2 0 0 1-3.883.957ZM23.78 5.772a2 2 0 1 1 3.884-.958 2 2 0 0 1-3.883.958ZM17.875 31.947a2 2 0 1 1 3.884-.958 2 2 0 0 1-3.884.958ZM20.748 43.598a2 2 0 1 1 3.883-.958 2 2 0 0 1-3.883.958ZM15.002 20.296a2 2 0 1 1 3.884-.958 2 2 0 0 1-3.883.958ZM12.13 8.645a2 2 0 1 1 3.883-.958 2 2 0 0 1-3.883.958ZM11.97 58.122a2 2 0 1 1 3.883-.958 2 2 0 0 1-3.884.958ZM6.224 34.82a2 2 0 1 1 3.884-.958 2 2 0 0 1-3.884.957ZM9.097 46.47a2 2 0 1 1 3.883-.957 2 2 0 0 1-3.883.958ZM3.351 23.168a2 2 0 1 1 3.884-.957 2 2 0 0 1-3.884.957ZM.479 11.517a2 2 0 1 1 3.883-.957 2 2 0 0 1-3.883.957Z" fill="gray" fill-opacity=".3"/></svg>