<svg width="53" height="41" fill="none" xmlns="http://www.w3.org/2000/svg"><path d="M38.225 36.087a2 2 0 1 1 .025 4 2 2 0 0 1-.025-4ZM50.224 36.012a2 2 0 1 1 .025 4 2 2 0 0 1-.025-4ZM26.15 24.163a2 2 0 1 1 .025 4 2 2 0 0 1-.025-4ZM14.15 24.238a2 2 0 1 1 .025 4 2 2 0 0 1-.025-4ZM38.15 24.087a2 2 0 1 1 .025 4 2 2 0 0 1-.025-4ZM50.15 24.012a2 2 0 1 1 .024 4 2 2 0 0 1-.025-4ZM26.075 12.163a2 2 0 1 1 .025 4 2 2 0 0 1-.025-4ZM14.075 12.238a2 2 0 1 1 .025 4 2 2 0 0 1-.025-4ZM38.074 12.088a2 2 0 1 1 .026 4 2 2 0 0 1-.026-4ZM50.074 12.012a2 2 0 1 1 .025 4 2 2 0 0 1-.025-4ZM2 .313a2 2 0 1 1 .025 4 2 2 0 0 1-.025-4ZM26 .163a2 2 0 1 1 .024 4 2 2 0 0 1-.025-4ZM14 .238a2 2 0 1 1 .025 4 2 2 0 0 1-.025-4ZM38 .088a2 2 0 1 1 .024 4 2 2 0 0 1-.025-4ZM49.999.013a2 2 0 1 1 .025 4 2 2 0 0 1-.025-4Z" fill="gray" fill-opacity=".3"/></svg>