<svg width="55" height="41" fill="none" xmlns="http://www.w3.org/2000/svg"><path d="M40.16 36.925a2 2 0 1 1 .21 3.994 2 2 0 0 1-.21-3.994ZM52.142 36.29a2 2 0 1 1 .212 3.995 2 2 0 0 1-.212-3.995ZM27.541 25.576a2 2 0 1 1 .212 3.994 2 2 0 0 1-.212-3.994ZM15.558 26.21a2 2 0 1 1 .212 3.995 2 2 0 0 1-.212-3.995ZM39.525 24.942a2 2 0 1 1 .211 3.994 2 2 0 0 1-.211-3.994ZM51.508 24.307a2 2 0 1 1 .212 3.994 2 2 0 0 1-.212-3.994ZM26.907 13.593a2 2 0 1 1 .211 3.994 2 2 0 0 1-.21-3.994ZM14.924 14.227a2 2 0 1 1 .211 3.994 2 2 0 0 1-.211-3.994ZM38.89 12.958a2 2 0 1 1 .212 3.995 2 2 0 0 1-.212-3.995ZM50.873 12.324a2 2 0 1 1 .212 3.994 2 2 0 0 1-.212-3.994ZM2.306 2.878a2 2 0 1 1 .212 3.995 2 2 0 0 1-.212-3.995ZM26.273 1.61a2 2 0 1 1 .211 3.994 2 2 0 0 1-.211-3.994ZM14.29 2.244a2 2 0 1 1 .21 3.995 2 2 0 0 1-.21-3.995ZM38.256.975a2 2 0 1 1 .211 3.994 2 2 0 0 1-.211-3.994ZM50.24.34a2 2 0 1 1 .21 3.995 2 2 0 0 1-.21-3.994Z" fill="#9C9C9C"/></svg>