<svg width="55" height="42" fill="none" xmlns="http://www.w3.org/2000/svg"><path d="M14.518 4.953A2 2 0 1 1 14.292.96a2 2 0 0 1 .226 3.993ZM2.537 5.633a2 2 0 1 1-.226-3.993 2 2 0 0 1 .226 3.993ZM27.179 16.254a2 2 0 1 1-.227-3.994 2 2 0 0 1 .227 3.994ZM39.16 15.574a2 2 0 1 1-.227-3.994 2 2 0 0 1 .227 3.994ZM15.198 16.934a2 2 0 1 1-.227-3.994 2 2 0 0 1 .227 3.994ZM3.218 17.614a2 2 0 1 1-.227-3.994 2 2 0 0 1 .227 3.994ZM27.859 28.235a2 2 0 1 1-.227-3.994 2 2 0 0 1 .227 3.994ZM39.84 27.555a2 2 0 1 1-.227-3.994 2 2 0 0 1 .227 3.994ZM15.878 28.915a2 2 0 1 1-.226-3.994 2 2 0 0 1 .226 3.994ZM3.898 29.595A2 2 0 1 1 3.67 25.6a2 2 0 0 1 .227 3.994ZM52.5 38.855a2 2 0 1 1-.226-3.993 2 2 0 0 1 .226 3.993ZM28.539 40.215a2 2 0 1 1-.227-3.993 2 2 0 0 1 .227 3.993ZM40.52 39.535a2 2 0 1 1-.227-3.993 2 2 0 0 1 .227 3.993ZM16.558 40.895a2 2 0 1 1-.226-3.993 2 2 0 0 1 .226 3.993ZM4.578 41.575a2 2 0 1 1-.227-3.993 2 2 0 0 1 .227 3.993Z" fill="#9C9C9C"/></svg>