<svg width="55" height="41" fill="none" xmlns="http://www.w3.org/2000/svg"><path d="M14.204 4.147a2 2 0 1 1-.226-3.994 2 2 0 0 1 .226 3.994ZM2.224 4.827A2 2 0 1 1 1.997.833a2 2 0 0 1 .227 3.994ZM26.865 15.448a2 2 0 1 1-.227-3.994 2 2 0 0 1 .227 3.994ZM38.846 14.768a2 2 0 1 1-.227-3.994 2 2 0 0 1 .227 3.994ZM14.884 16.128a2 2 0 1 1-.226-3.994 2 2 0 0 1 .226 3.994ZM2.904 16.808a2 2 0 1 1-.227-3.994 2 2 0 0 1 .227 3.994ZM27.545 27.428a2 2 0 1 1-.227-3.993 2 2 0 0 1 .227 3.993ZM39.526 26.748a2 2 0 1 1-.227-3.993 2 2 0 0 1 .227 3.993ZM15.564 28.108a2 2 0 1 1-.226-3.993 2 2 0 0 1 .226 3.993ZM3.584 28.788a2 2 0 1 1-.227-3.993 2 2 0 0 1 .227 3.993ZM52.187 38.05a2 2 0 1 1-.227-3.995 2 2 0 0 1 .227 3.994ZM28.225 39.41a2 2 0 1 1-.227-3.994 2 2 0 0 1 .227 3.993ZM40.206 38.73a2 2 0 1 1-.227-3.995 2 2 0 0 1 .227 3.994ZM16.244 40.09a2 2 0 1 1-.226-3.994 2 2 0 0 1 .226 3.993ZM4.264 40.77a2 2 0 1 1-.227-3.995 2 2 0 0 1 .227 3.994Z" fill="gray" fill-opacity=".3"/></svg>