<svg width="16" height="16" fill="none" xmlns="http://www.w3.org/2000/svg"><path d="m14.025 10.717-2.117-.242a1.66 1.66 0 0 0-1.366.475l-1.534 1.533a12.538 12.538 0 0 1-5.491-5.491L5.058 5.45c.359-.358.534-.858.475-1.367l-.241-2.1A1.668 1.668 0 0 0 3.633.508H2.192C1.25.508.467 1.292.525 2.233c.442 7.117 6.133 12.8 13.242 13.242.941.058 1.725-.725 1.725-1.667v-1.441a1.652 1.652 0 0 0-1.467-1.65Z" fill="url(#a)"/><defs><linearGradient id="a" x1="8.007" y1=".508" x2="8.007" y2="15.478" gradientUnits="userSpaceOnUse"><stop offset=".54" stop-color="#3806CC"/><stop offset="1" stop-color="#1C0366"/></linearGradient></defs></svg>