<svg width="16" height="16" fill="none" xmlns="http://www.w3.org/2000/svg"><path d="m7.44 14.4 4-7.8h-2.8v-5l-4 7.8h2.8v5ZM8 16a7.79 7.79 0 0 1-3.12-.63 8.079 8.079 0 0 1-2.54-1.71 8.08 8.08 0 0 1-1.71-2.54A7.79 7.79 0 0 1 0 8c0-1.107.21-2.147.63-3.12.42-.973.99-1.82 1.71-2.54A8.079 8.079 0 0 1 4.88.63 7.79 7.79 0 0 1 8 0a7.79 7.79 0 0 1 3.12.63c.973.42 1.82.99 2.54 1.71s1.29 1.567 1.71 2.54c.42.973.63 2.013.63 3.12a7.79 7.79 0 0 1-.63 3.12 8.08 8.08 0 0 1-1.71 2.54 8.08 8.08 0 0 1-2.54 1.71A7.79 7.79 0 0 1 8 16Zm0-1.6c1.773 0 3.283-.623 4.53-1.87C13.777 11.283 14.4 9.773 14.4 8c0-1.773-.623-3.283-1.87-4.53C11.283 2.223 9.773 1.6 8 1.6c-1.773 0-3.283.623-4.53 1.87C2.223 4.717 1.6 6.227 1.6 8c0 1.773.623 3.283 1.87 4.53C4.717 13.777 6.227 14.4 8 14.4Z" fill="url(#a)"/><defs><linearGradient id="a" x1="8" y1="0" x2="8" y2="16" gradientUnits="userSpaceOnUse"><stop offset=".54" stop-color="#3806CC"/><stop offset="1" stop-color="#1C0366"/></linearGradient></defs></svg>