<svg width="16" height="17" fill="none" xmlns="http://www.w3.org/2000/svg"><path fill-rule="evenodd" clip-rule="evenodd" d="M7.646.286a.5.5 0 0 1 .708 0l2 2a.5.5 0 1 1-.708.708L8.5 1.847V5.64a.5.5 0 0 1-1 0V1.847L6.354 2.994a.5.5 0 0 1-.708-.708l2-2ZM8 10.14a.5.5 0 0 1 .5.5v3.793l1.146-1.147a.5.5 0 1 1 .708.708l-2 2a.5.5 0 0 1-.708 0l-2-2a.501.501 0 0 1 .708-.708L7.5 14.433V10.64a.5.5 0 0 1 .5-.5ZM.146 8.494a.5.5 0 0 1 0-.708l2-2a.5.5 0 0 1 .708.708L1.707 7.64H5.5a.5.5 0 0 1 0 1H1.707l1.147 1.146a.5.5 0 0 1-.708.708l-2-2ZM10 8.14a.5.5 0 0 1 .5-.5h3.793l-1.147-1.146a.501.501 0 0 1 .708-.708l2 2a.5.5 0 0 1 0 .708l-2 2a.5.5 0 1 1-.708-.708l1.147-1.146H10.5a.5.5 0 0 1-.5-.5Z" fill="url(#a)"/><defs><linearGradient id="a" x1="8" y1=".139" x2="8" y2="16.141" gradientUnits="userSpaceOnUse"><stop offset=".54" stop-color="#3806CC"/><stop offset="1" stop-color="#1C0366"/></linearGradient></defs></svg>