<svg width="16" height="16" fill="none" xmlns="http://www.w3.org/2000/svg"><path d="M10 2.03c0 .45-.147.888-.419 1.243-.271.356-.652.61-1.081.723V9.16c.863.085 1.5.383 1.5.737 0 .42-.895.762-2 .762s-2-.341-2-.762c0-.355.637-.652 1.5-.737V3.996a1.994 1.994 0 0 1-.949-.566 2.059 2.059 0 0 1-.427-2.104c.13-.356.355-.668.651-.9A1.984 1.984 0 0 1 8.88.208c.336.167.619.426.817.748.198.322.303.694.303 1.074Z" fill="url(#a)"/><path d="M0 9.81v1.743c0 .188.052.373.15.533.097.16.237.29.403.374l6.553 3.326a1.976 1.976 0 0 0 1.788 0l6.553-3.326c.166-.084.306-.214.403-.374.098-.16.15-.345.15-.533V9.81a.255.255 0 0 0-.152-.233L9.5 6.816v1.008l5.227 2.21a.125.125 0 0 1 .076.117.128.128 0 0 1-.075.117l-5.94 2.584a1.975 1.975 0 0 1-1.576 0l-5.94-2.584a.125.125 0 0 1-.076-.117.128.128 0 0 1 .077-.117L6.5 7.824 6.487 6.82.152 9.577A.25.25 0 0 0 0 9.81Z" fill="url(#b)"/><defs><linearGradient id="a" x1="8" y1="0" x2="8" y2="10.658" gradientUnits="userSpaceOnUse"><stop offset=".54" stop-color="#3806CC"/><stop offset="1" stop-color="#1C0366"/></linearGradient><linearGradient id="b" x1="8" y1="6.816" x2="8" y2="16" gradientUnits="userSpaceOnUse"><stop offset=".54" stop-color="#3806CC"/><stop offset="1" stop-color="#1C0366"/></linearGradient></defs></svg>