<svg width="16" height="17" fill="none" xmlns="http://www.w3.org/2000/svg"><path d="M0 8.14a8 8 0 1 1 16 0 8 8 0 0 1-16 0Zm7.5-6.923c-.67.204-1.335.82-1.887 1.855-.143.269-.275.56-.395.872.705.157 1.472.257 2.282.287V1.217ZM4.249 3.679c.143-.385.303-.744.481-1.078a7 7 0 0 1 .597-.933A7 7 0 0 0 3.051 3.19c.363.185.762.347 1.198.489Zm-.74 3.961c.036-1.07.188-2.087.436-3.008a9 9 0 0 1-1.565-.667A6.96 6.96 0 0 0 1.018 7.64h2.491Zm1.4-2.741a12.3 12.3 0 0 0-.4 2.741H7.5V5.231c-.91-.03-1.783-.145-2.591-.332ZM8.5 5.23v2.41h2.99a12.3 12.3 0 0 0-.399-2.741c-.808.187-1.681.3-2.591.331ZM4.51 8.64c.035.987.176 1.914.399 2.741A13.605 13.605 0 0 1 7.5 11.05V8.64H4.51Zm3.99 0v2.409c.91.03 1.783.145 2.591.332.223-.827.364-1.754.4-2.741H8.5Zm-3.282 3.696c.12.313.252.603.395.872.552 1.035 1.218 1.65 1.887 1.855V12.05c-.81.03-1.577.129-2.282.286Zm.11 2.276a7 7 0 0 1-.598-.933 8.998 8.998 0 0 1-.481-1.079 8.403 8.403 0 0 0-1.198.49 7.005 7.005 0 0 0 2.277 1.522Zm-1.383-2.964a13.4 13.4 0 0 1-.437-3.008h-2.49a6.96 6.96 0 0 0 1.362 3.675c.47-.258.995-.482 1.565-.667Zm6.728 2.964a7 7 0 0 0 2.275-1.521 8.403 8.403 0 0 0-1.197-.49c-.137.37-.297.73-.481 1.078a6.995 6.995 0 0 1-.597.933ZM8.5 12.049v3.014c.67-.204 1.335-.82 1.887-1.855.144-.269.276-.56.395-.872a12.605 12.605 0 0 0-2.282-.287Zm3.555-.401c.57.185 1.095.409 1.565.667a6.96 6.96 0 0 0 1.362-3.675h-2.49a13.398 13.398 0 0 1-.437 3.008Zm2.927-4.008a6.96 6.96 0 0 0-1.362-3.675c-.47.258-.995.482-1.565.667.248.92.4 1.938.437 3.008h2.49ZM11.27 2.601c.177.335.338.694.482 1.078.41-.132.81-.296 1.196-.49a7 7 0 0 0-2.275-1.52c.218.283.418.597.597.932Zm-.488 1.343a7.984 7.984 0 0 0-.395-.872C9.835 2.037 9.17 1.422 8.5 1.217V4.23c.81-.03 1.577-.129 2.282-.286Z" fill="url(#a)"/><defs><linearGradient id="a" x1="8" y1=".14" x2="8" y2="16.14" gradientUnits="userSpaceOnUse"><stop offset=".54" stop-color="#3806CC"/><stop offset="1" stop-color="#1C0366"/></linearGradient></defs></svg>